<svg width="14" height="14" viewBox="0 0 14 14" fill="none" xmlns="http://www.w3.org/2000/svg">
<path fill-rule="evenodd" clip-rule="evenodd" d="M0.409008 5.9875C0.358341 6.3195 0.333008 6.66016 0.333008 7.00016C0.333008 10.6762 3.32367 13.6668 6.99967 13.6668C10.6757 13.6668 13.6663 10.6762 13.6663 7.00016C13.6663 3.32416 10.6757 0.333496 6.99967 0.333496C4.91434 0.333496 2.98834 1.28216 1.71501 2.93483C1.55167 3.14683 1.59167 3.45216 1.80301 3.61483C2.01501 3.77883 2.31901 3.73816 2.48367 3.52683C3.57101 2.11283 5.21767 1.30283 6.99967 1.30283C10.141 1.30283 12.697 3.85816 12.697 7.00016C12.697 10.1415 10.141 12.6968 6.99967 12.6968C3.85834 12.6968 1.30234 10.1415 1.30234 7.00016C1.30234 6.70883 1.32434 6.4175 1.36767 6.13416C1.40767 5.87016 1.22634 5.62283 0.961674 5.58216C0.695674 5.53816 0.449674 5.72283 0.409008 5.9875ZM8.86248 6.99963C8.86248 6.86696 8.80981 6.73963 8.71515 6.64563L6.39115 4.33163C6.19515 4.1363 5.87848 4.13696 5.68381 4.33296C5.48915 4.52896 5.48915 4.84496 5.68515 5.03963L7.65381 6.99963L5.68515 8.95963C5.48915 9.15429 5.48915 9.47096 5.68381 9.66696C5.87848 9.86229 6.19515 9.86296 6.39115 9.66829L8.71515 7.35363C8.80981 7.26029 8.86248 7.13296 8.86248 6.99963Z" fill="#919BC6"/>
</svg>
